<svg xmlns="http://www.w3.org/2000/svg" width="2048" height="1536" viewBox="0 0 2048 1536"><rect width="2048" height="1536" fill="#0c131d"/><image href="b66a93b42d87d822834810bcec4da73b0b3f3dfea9dc986bc8b0ca72e2d787d0.png" width="2048" height="1536"/><g font-family="Arial" font-size="16" fill="#f7da9c"><g><title>Aft Ember</title><circle cx="491.45" cy="772.71" r="7" fill="#111e2b" stroke="#edc47e"/><text x="501.45" y="762.71">0</text></g><g><title>Command and sensors</title><circle cx="962.73" cy="782.14" r="7" fill="#111e2b" stroke="#edc47e"/><text x="972.73" y="772.14">1</text></g><g><title>Power distribution</title><circle cx="1000.44" cy="772.71" r="7" fill="#111e2b" stroke="#edc47e"/><text x="1010.44" y="762.71">2</text></g><g><title>Port propellant</title><circle cx="802.50" cy="697.31" r="7" fill="#111e2b" stroke="#edc47e"/><text x="812.50" y="687.31">3</text></g><g><title>Starboard propellant</title><circle cx="802.50" cy="848.12" r="7" fill="#111e2b" stroke="#edc47e"/><text x="812.50" y="838.12">4</text></g><g><title>Kinetic magazine</title><circle cx="1113.54" cy="782.14" r="7" fill="#111e2b" stroke="#edc47e"/><text x="1123.54" y="772.14">5</text></g><g><title>Dorsal PD ammunition</title><circle cx="1151.25" cy="800.99" r="7" fill="#111e2b" stroke="#edc47e"/><text x="1161.25" y="790.99">6</text></g><g><title>Port main drive</title><circle cx="284.08" cy="716.16" r="7" fill="#111e2b" stroke="#edc47e"/><text x="294.08" y="706.16">7</text></g><g><title>Starboard main drive</title><circle cx="284.08" cy="829.27" r="7" fill="#111e2b" stroke="#edc47e"/><text x="294.08" y="819.27">8</text></g><g><title>Fore-port shield emitter</title><circle cx="1226.65" cy="687.88" r="7" fill="#111e2b" stroke="#edc47e"/><text x="1236.65" y="677.88">9</text></g><g><title>Fore-starboard shield emitter</title><circle cx="1226.65" cy="857.54" r="7" fill="#111e2b" stroke="#edc47e"/><text x="1236.65" y="847.54">10</text></g><g><title>Aft-starboard shield emitter</title><circle cx="613.98" cy="838.69" r="7" fill="#111e2b" stroke="#edc47e"/><text x="623.98" y="828.69">11</text></g><g><title>Aft-port shield emitter</title><circle cx="613.98" cy="706.73" r="7" fill="#111e2b" stroke="#edc47e"/><text x="623.98" y="696.73">12</text></g><g><title>Attitude jet 1</title><circle cx="472.59" cy="687.88" r="7" fill="#111e2b" stroke="#edc47e"/><text x="482.59" y="677.88">13</text></g><g><title>Attitude jet 2</title><circle cx="472.59" cy="857.54" r="7" fill="#111e2b" stroke="#edc47e"/><text x="482.59" y="847.54">14</text></g><g><title>Attitude jet 3</title><circle cx="1584.83" cy="716.16" r="7" fill="#111e2b" stroke="#edc47e"/><text x="1594.83" y="706.16">15</text></g><g><title>Attitude jet 4</title><circle cx="1584.83" cy="829.27" r="7" fill="#111e2b" stroke="#edc47e"/><text x="1594.83" y="819.27">16</text></g><g><title>Attitude jet 5</title><circle cx="1773.35" cy="735.01" r="7" fill="#111e2b" stroke="#edc47e"/><text x="1783.35" y="725.01">17</text></g><g><title>Attitude jet 6</title><circle cx="1773.35" cy="810.42" r="7" fill="#111e2b" stroke="#edc47e"/><text x="1783.35" y="800.42">18</text></g><g><title>Attitude jet 7</title><circle cx="859.05" cy="650.18" r="7" fill="#111e2b" stroke="#edc47e"/><text x="869.05" y="640.18">19</text></g><g><title>Attitude jet 8</title><circle cx="859.05" cy="895.25" r="7" fill="#111e2b" stroke="#edc47e"/><text x="869.05" y="885.25">20</text></g><g><title>Attitude jet 9</title><circle cx="972.16" cy="650.18" r="7" fill="#111e2b" stroke="#edc47e"/><text x="982.16" y="640.18">21</text></g><g><title>Attitude jet 10</title><circle cx="972.16" cy="895.25" r="7" fill="#111e2b" stroke="#edc47e"/><text x="982.16" y="885.25">22</text></g><g><title>Forward kinetic battery</title><circle cx="1424.59" cy="772.71" r="7" fill="#111e2b" stroke="#edc47e"/><text x="1434.59" y="762.71">23</text></g><g><title>Dorsal point defense</title><circle cx="837.84" cy="770.36" r="7" fill="#111e2b" stroke="#edc47e"/><text x="847.84" y="760.36">24</text></g><g><title>Aft Ember cooling manifold</title><circle cx="434.89" cy="800.99" r="7" fill="#111e2b" stroke="#edc47e"/><text x="444.89" y="790.99">25</text></g><g><title>Fore Ember cooling manifold</title><circle cx="1188.95" cy="800.99" r="7" fill="#111e2b" stroke="#edc47e"/><text x="1198.95" y="790.99">26</text></g><g><title>Fore Ember</title><circle cx="1245.50" cy="772.71" r="7" fill="#111e2b" stroke="#edc47e"/><text x="1255.50" y="762.71">27</text></g><g><title>Port point defense ammunition</title><circle cx="998.08" cy="638.40" r="7" fill="#111e2b" stroke="#edc47e"/><text x="1008.08" y="628.40">28</text></g><g><title>Port point defense</title><circle cx="1016.93" cy="638.40" r="7" fill="#111e2b" stroke="#edc47e"/><text x="1026.93" y="628.40">29</text></g><g><title>Starboard point defense ammunition</title><circle cx="998.08" cy="902.32" r="7" fill="#111e2b" stroke="#edc47e"/><text x="1008.08" y="892.32">30</text></g><g><title>Starboard point defense</title><circle cx="1016.93" cy="902.32" r="7" fill="#111e2b" stroke="#edc47e"/><text x="1026.93" y="892.32">31</text></g><text x="40" y="1480">Machine numbers match ship.json. Positions are projected through the hull; this is a systems map, not a deck plan.</text></g></svg>