<svg xmlns="http://www.w3.org/2000/svg" width="2048" height="1536" viewBox="0 0 2048 1536"><rect width="2048" height="1536" fill="#0c131d"/><image href="7f87df4af1aa1bdf001b8e17e2916869033d1ef03004a40bf273ad1803386aa0.png" width="2048" height="1536"/><g font-family="Arial" font-size="16" fill="#f7da9c"><g><title>Utility Ember cooling manifold</title><circle cx="875.64" cy="706.18" r="7" fill="#111e2b" stroke="#edc47e"/><text x="885.64" y="696.18">0</text></g><g><title>Utility Ember</title><circle cx="1024.00" cy="632.00" r="7" fill="#111e2b" stroke="#edc47e"/><text x="1034.00" y="622.00">1</text></g><g><title>Utility power trunk</title><circle cx="1147.64" cy="780.36" r="7" fill="#111e2b" stroke="#edc47e"/><text x="1157.64" y="770.36">2</text></g><g><title>Wheelhouse controls</title><circle cx="1568.00" cy="780.36" r="7" fill="#111e2b" stroke="#edc47e"/><text x="1578.00" y="770.36">3</text></g><g><title>Port propellant</title><circle cx="752.00" cy="335.27" r="7" fill="#111e2b" stroke="#edc47e"/><text x="762.00" y="325.27">4</text></g><g><title>Starboard propellant</title><circle cx="752.00" cy="1225.45" r="7" fill="#111e2b" stroke="#edc47e"/><text x="762.00" y="1215.45">5</text></g><g><title>Port tow drive</title><circle cx="381.09" cy="335.27" r="7" fill="#111e2b" stroke="#edc47e"/><text x="391.09" y="325.27">6</text></g><g><title>Starboard tow drive</title><circle cx="381.09" cy="1225.45" r="7" fill="#111e2b" stroke="#edc47e"/><text x="391.09" y="1215.45">7</text></g><g><title>Workboat jet 1</title><circle cx="1790.55" cy="557.82" r="7" fill="#111e2b" stroke="#edc47e"/><text x="1800.55" y="547.82">8</text></g><g><title>Workboat jet 2</title><circle cx="1790.55" cy="1002.91" r="7" fill="#111e2b" stroke="#edc47e"/><text x="1800.55" y="992.91">9</text></g><g><title>Workboat jet 3</title><circle cx="480.00" cy="261.09" r="7" fill="#111e2b" stroke="#edc47e"/><text x="490.00" y="251.09">10</text></g><g><title>Workboat jet 4</title><circle cx="480.00" cy="1299.64" r="7" fill="#111e2b" stroke="#edc47e"/><text x="490.00" y="1289.64">11</text></g><g><title>Workboat jet 5</title><circle cx="1864.73" cy="607.27" r="7" fill="#111e2b" stroke="#edc47e"/><text x="1874.73" y="597.27">12</text></g><g><title>Workboat jet 6</title><circle cx="1864.73" cy="953.45" r="7" fill="#111e2b" stroke="#edc47e"/><text x="1874.73" y="943.45">13</text></g><g><title>Workboat jet 7</title><circle cx="776.73" cy="285.82" r="7" fill="#111e2b" stroke="#edc47e"/><text x="786.73" y="275.82">14</text></g><g><title>Workboat jet 8</title><circle cx="776.73" cy="1274.91" r="7" fill="#111e2b" stroke="#edc47e"/><text x="786.73" y="1264.91">15</text></g><g><title>Workboat jet 9</title><circle cx="776.73" cy="285.82" r="7" fill="#111e2b" stroke="#edc47e"/><text x="786.73" y="275.82">16</text></g><g><title>Workboat jet 10</title><circle cx="776.73" cy="1274.91" r="7" fill="#111e2b" stroke="#edc47e"/><text x="786.73" y="1264.91">17</text></g><g><title>Tow winch</title><circle cx="603.64" cy="780.36" r="7" fill="#111e2b" stroke="#edc47e"/><text x="613.64" y="770.36">18</text></g><g><title>Jump-drive service tools</title><circle cx="999.27" cy="928.73" r="7" fill="#111e2b" stroke="#edc47e"/><text x="1009.27" y="918.73">19</text></g><g><title>Repair spares / kg</title><circle cx="1246.55" cy="607.27" r="7" fill="#111e2b" stroke="#edc47e"/><text x="1256.55" y="597.27">20</text></g><g><title>Utility shield emitter 1</title><circle cx="1147.64" cy="360.00" r="7" fill="#111e2b" stroke="#edc47e"/><text x="1157.64" y="350.00">21</text></g><g><title>Utility shield emitter 2</title><circle cx="1147.64" cy="1200.73" r="7" fill="#111e2b" stroke="#edc47e"/><text x="1157.64" y="1190.73">22</text></g><g><title>Utility shield emitter 3</title><circle cx="1444.36" cy="557.82" r="7" fill="#111e2b" stroke="#edc47e"/><text x="1454.36" y="547.82">23</text></g><g><title>Utility shield emitter 4</title><circle cx="1444.36" cy="1002.91" r="7" fill="#111e2b" stroke="#edc47e"/><text x="1454.36" y="992.91">24</text></g><g><title>Field replacement stock / kg</title><circle cx="999.27" cy="928.73" r="7" fill="#111e2b" stroke="#edc47e"/><text x="1009.27" y="918.73">25</text></g><g><title>Field replacement tools</title><circle cx="999.27" cy="928.73" r="7" fill="#111e2b" stroke="#edc47e"/><text x="1009.27" y="918.73">26</text></g><text x="40" y="1480">Machine numbers match ship.json. Positions are projected through the hull; this is a systems map, not a deck plan.</text></g></svg>