<svg xmlns="http://www.w3.org/2000/svg" width="2048" height="1536" viewBox="0 0 2048 1536"><rect width="2048" height="1536" fill="#0c131d"/><image href="0c31aa621189b3f12e6f22b9cb7d6b71ce45a54e655c72c876512b78481bd62f.png" width="2048" height="1536"/><g font-family="Arial" font-size="16" fill="#f7da9c"><g><title>Transport protected Ember cooling manifold</title><circle cx="951.39" cy="808.34" r="7" fill="#111e2b" stroke="#edc47e"/><text x="961.39" y="798.34">0</text></g><g><title>Transport protected Ember</title><circle cx="1048.20" cy="759.93" r="7" fill="#111e2b" stroke="#edc47e"/><text x="1058.20" y="749.93">1</text></g><g><title>Transport protected distribution</title><circle cx="1056.27" cy="768.00" r="7" fill="#111e2b" stroke="#edc47e"/><text x="1066.27" y="758.00">2</text></g><g><title>Transport bridge and navigation</title><circle cx="1378.98" cy="768.00" r="7" fill="#111e2b" stroke="#edc47e"/><text x="1388.98" y="758.00">3</text></g><g><title>Port finite propellant</title><circle cx="862.64" cy="509.83" r="7" fill="#111e2b" stroke="#edc47e"/><text x="872.64" y="499.83">4</text></g><g><title>Starboard finite propellant</title><circle cx="862.64" cy="1026.17" r="7" fill="#111e2b" stroke="#edc47e"/><text x="872.64" y="1016.17">5</text></g><g><title>Port transport drive</title><circle cx="378.58" cy="509.83" r="7" fill="#111e2b" stroke="#edc47e"/><text x="388.58" y="499.83">6</text></g><g><title>Starboard transport drive</title><circle cx="378.58" cy="1026.17" r="7" fill="#111e2b" stroke="#edc47e"/><text x="388.58" y="1016.17">7</text></g><g><title>Transport maneuver nozzle 01</title><circle cx="572.20" cy="283.93" r="7" fill="#111e2b" stroke="#edc47e"/><text x="582.20" y="273.93">8</text></g><g><title>Transport maneuver nozzle 02</title><circle cx="572.20" cy="283.93" r="7" fill="#111e2b" stroke="#edc47e"/><text x="582.20" y="273.93">9</text></g><g><title>Transport maneuver nozzle 03</title><circle cx="572.20" cy="1219.80" r="7" fill="#111e2b" stroke="#edc47e"/><text x="582.20" y="1209.80">10</text></g><g><title>Transport maneuver nozzle 04</title><circle cx="572.20" cy="1219.80" r="7" fill="#111e2b" stroke="#edc47e"/><text x="582.20" y="1209.80">11</text></g><g><title>Transport maneuver nozzle 05</title><circle cx="1508.07" cy="283.93" r="7" fill="#111e2b" stroke="#edc47e"/><text x="1518.07" y="273.93">12</text></g><g><title>Transport maneuver nozzle 06</title><circle cx="1508.07" cy="283.93" r="7" fill="#111e2b" stroke="#edc47e"/><text x="1518.07" y="273.93">13</text></g><g><title>Transport maneuver nozzle 07</title><circle cx="1508.07" cy="1219.80" r="7" fill="#111e2b" stroke="#edc47e"/><text x="1518.07" y="1209.80">14</text></g><g><title>Transport maneuver nozzle 08</title><circle cx="1508.07" cy="1219.80" r="7" fill="#111e2b" stroke="#edc47e"/><text x="1518.07" y="1209.80">15</text></g><g><title>Transport maneuver nozzle 09</title><circle cx="475.39" cy="542.10" r="7" fill="#111e2b" stroke="#edc47e"/><text x="485.39" y="532.10">16</text></g><g><title>Transport maneuver nozzle 10</title><circle cx="475.39" cy="542.10" r="7" fill="#111e2b" stroke="#edc47e"/><text x="485.39" y="532.10">17</text></g><g><title>Transport maneuver nozzle 11</title><circle cx="475.39" cy="961.63" r="7" fill="#111e2b" stroke="#edc47e"/><text x="485.39" y="951.63">18</text></g><g><title>Transport maneuver nozzle 12</title><circle cx="475.39" cy="961.63" r="7" fill="#111e2b" stroke="#edc47e"/><text x="485.39" y="951.63">19</text></g><g><title>Transport maneuver nozzle 13</title><circle cx="1604.88" cy="542.10" r="7" fill="#111e2b" stroke="#edc47e"/><text x="1614.88" y="532.10">20</text></g><g><title>Transport maneuver nozzle 14</title><circle cx="1604.88" cy="542.10" r="7" fill="#111e2b" stroke="#edc47e"/><text x="1614.88" y="532.10">21</text></g><g><title>Transport maneuver nozzle 15</title><circle cx="1604.88" cy="961.63" r="7" fill="#111e2b" stroke="#edc47e"/><text x="1614.88" y="951.63">22</text></g><g><title>Transport maneuver nozzle 16</title><circle cx="1604.88" cy="961.63" r="7" fill="#111e2b" stroke="#edc47e"/><text x="1614.88" y="951.63">23</text></g><g><title>Transport maneuver nozzle 17</title><circle cx="1766.24" cy="477.56" r="7" fill="#111e2b" stroke="#edc47e"/><text x="1776.24" y="467.56">24</text></g><g><title>Transport maneuver nozzle 18</title><circle cx="1766.24" cy="477.56" r="7" fill="#111e2b" stroke="#edc47e"/><text x="1776.24" y="467.56">25</text></g><g><title>Transport maneuver nozzle 19</title><circle cx="1766.24" cy="1026.17" r="7" fill="#111e2b" stroke="#edc47e"/><text x="1776.24" y="1016.17">26</text></g><g><title>Transport maneuver nozzle 20</title><circle cx="1766.24" cy="1026.17" r="7" fill="#111e2b" stroke="#edc47e"/><text x="1776.24" y="1016.17">27</text></g><text x="40" y="1480">Machine numbers match ship.json. Positions are projected through the hull; this is a systems map, not a deck plan.</text></g></svg>