<svg xmlns="http://www.w3.org/2000/svg" width="2048" height="1536" viewBox="0 0 2048 1536"><rect width="2048" height="1536" fill="#0c131d"/><image href="42110ec35216687d1ee1bb98b4d35684fa7d806c85fcb2893e1f7cc46ee6f44c.png" width="2048" height="1536"/><g font-family="Arial" font-size="16" fill="#f7da9c"><g><title>Transport protected Ember cooling manifold</title><circle cx="968.07" cy="811.50" r="7" fill="#111e2b" stroke="#edc47e"/><text x="978.07" y="801.50">0</text></g><g><title>Transport protected Ember</title><circle cx="1042.64" cy="774.21" r="7" fill="#111e2b" stroke="#edc47e"/><text x="1052.64" y="764.21">1</text></g><g><title>Transport protected distribution</title><circle cx="1048.86" cy="780.43" r="7" fill="#111e2b" stroke="#edc47e"/><text x="1058.86" y="770.43">2</text></g><g><title>Transport bridge and navigation</title><circle cx="1297.43" cy="780.43" r="7" fill="#111e2b" stroke="#edc47e"/><text x="1307.43" y="770.43">3</text></g><g><title>Field replacement stock / kg</title><circle cx="874.86" cy="1377.00" r="7" fill="#111e2b" stroke="#edc47e"/><text x="884.86" y="1367.00">4</text></g><g><title>Field replacement tools</title><circle cx="874.86" cy="183.86" r="7" fill="#111e2b" stroke="#edc47e"/><text x="884.86" y="173.86">5</text></g><g><title>Workshop service winch</title><circle cx="1173.14" cy="183.86" r="7" fill="#111e2b" stroke="#edc47e"/><text x="1183.14" y="173.86">6</text></g><g><title>Port finite propellant</title><circle cx="899.71" cy="581.57" r="7" fill="#111e2b" stroke="#edc47e"/><text x="909.71" y="571.57">7</text></g><g><title>Starboard finite propellant</title><circle cx="899.71" cy="979.29" r="7" fill="#111e2b" stroke="#edc47e"/><text x="909.71" y="969.29">8</text></g><g><title>Port transport drive</title><circle cx="526.86" cy="581.57" r="7" fill="#111e2b" stroke="#edc47e"/><text x="536.86" y="571.57">9</text></g><g><title>Starboard transport drive</title><circle cx="526.86" cy="979.29" r="7" fill="#111e2b" stroke="#edc47e"/><text x="536.86" y="969.29">10</text></g><g><title>Transport maneuver nozzle 01</title><circle cx="676.00" cy="407.57" r="7" fill="#111e2b" stroke="#edc47e"/><text x="686.00" y="397.57">11</text></g><g><title>Transport maneuver nozzle 02</title><circle cx="676.00" cy="407.57" r="7" fill="#111e2b" stroke="#edc47e"/><text x="686.00" y="397.57">12</text></g><g><title>Transport maneuver nozzle 03</title><circle cx="676.00" cy="1128.43" r="7" fill="#111e2b" stroke="#edc47e"/><text x="686.00" y="1118.43">13</text></g><g><title>Transport maneuver nozzle 04</title><circle cx="676.00" cy="1128.43" r="7" fill="#111e2b" stroke="#edc47e"/><text x="686.00" y="1118.43">14</text></g><g><title>Transport maneuver nozzle 05</title><circle cx="1396.86" cy="407.57" r="7" fill="#111e2b" stroke="#edc47e"/><text x="1406.86" y="397.57">15</text></g><g><title>Transport maneuver nozzle 06</title><circle cx="1396.86" cy="407.57" r="7" fill="#111e2b" stroke="#edc47e"/><text x="1406.86" y="397.57">16</text></g><g><title>Transport maneuver nozzle 07</title><circle cx="1396.86" cy="1128.43" r="7" fill="#111e2b" stroke="#edc47e"/><text x="1406.86" y="1118.43">17</text></g><g><title>Transport maneuver nozzle 08</title><circle cx="1396.86" cy="1128.43" r="7" fill="#111e2b" stroke="#edc47e"/><text x="1406.86" y="1118.43">18</text></g><g><title>Transport maneuver nozzle 09</title><circle cx="601.43" cy="606.43" r="7" fill="#111e2b" stroke="#edc47e"/><text x="611.43" y="596.43">19</text></g><g><title>Transport maneuver nozzle 10</title><circle cx="601.43" cy="606.43" r="7" fill="#111e2b" stroke="#edc47e"/><text x="611.43" y="596.43">20</text></g><g><title>Transport maneuver nozzle 11</title><circle cx="601.43" cy="929.57" r="7" fill="#111e2b" stroke="#edc47e"/><text x="611.43" y="919.57">21</text></g><g><title>Transport maneuver nozzle 12</title><circle cx="601.43" cy="929.57" r="7" fill="#111e2b" stroke="#edc47e"/><text x="611.43" y="919.57">22</text></g><g><title>Transport maneuver nozzle 13</title><circle cx="1471.43" cy="606.43" r="7" fill="#111e2b" stroke="#edc47e"/><text x="1481.43" y="596.43">23</text></g><g><title>Transport maneuver nozzle 14</title><circle cx="1471.43" cy="606.43" r="7" fill="#111e2b" stroke="#edc47e"/><text x="1481.43" y="596.43">24</text></g><g><title>Transport maneuver nozzle 15</title><circle cx="1471.43" cy="929.57" r="7" fill="#111e2b" stroke="#edc47e"/><text x="1481.43" y="919.57">25</text></g><g><title>Transport maneuver nozzle 16</title><circle cx="1471.43" cy="929.57" r="7" fill="#111e2b" stroke="#edc47e"/><text x="1481.43" y="919.57">26</text></g><g><title>Transport maneuver nozzle 17</title><circle cx="1595.71" cy="556.71" r="7" fill="#111e2b" stroke="#edc47e"/><text x="1605.71" y="546.71">27</text></g><g><title>Transport maneuver nozzle 18</title><circle cx="1595.71" cy="556.71" r="7" fill="#111e2b" stroke="#edc47e"/><text x="1605.71" y="546.71">28</text></g><g><title>Transport maneuver nozzle 19</title><circle cx="1595.71" cy="979.29" r="7" fill="#111e2b" stroke="#edc47e"/><text x="1605.71" y="969.29">29</text></g><g><title>Transport maneuver nozzle 20</title><circle cx="1595.71" cy="979.29" r="7" fill="#111e2b" stroke="#edc47e"/><text x="1605.71" y="969.29">30</text></g><text x="40" y="1480">Machine numbers match ship.json. Positions are projected through the hull; this is a systems map, not a deck plan.</text></g></svg>