<svg xmlns="http://www.w3.org/2000/svg" width="2048" height="1536" viewBox="0 0 2048 1536"><rect width="2048" height="1536" fill="#0c131d"/><image href="5dc14614471ac0d9f1920629d9d546a12b988072d57e540c9c3a1660b5ebb293.png" width="2048" height="1536"/><g font-family="Arial" font-size="16" fill="#f7da9c"><g><title>Compact reactor</title><circle cx="584.62" cy="773.63" r="7" fill="#111e2b" stroke="#edc47e"/><text x="594.62" y="763.63">0</text></g><g><title>Flight control and sensors</title><circle cx="426.89" cy="773.63" r="7" fill="#111e2b" stroke="#edc47e"/><text x="436.89" y="763.63">1</text></g><g><title>Protected power spine</title><circle cx="381.82" cy="773.63" r="7" fill="#111e2b" stroke="#edc47e"/><text x="391.82" y="763.63">2</text></g><g><title>Port propellant</title><circle cx="404.36" cy="706.04" r="7" fill="#111e2b" stroke="#edc47e"/><text x="414.36" y="696.04">3</text></g><g><title>Starboard propellant</title><circle cx="404.36" cy="841.23" r="7" fill="#111e2b" stroke="#edc47e"/><text x="414.36" y="831.23">4</text></g><g><title>Autocannon magazine</title><circle cx="787.41" cy="773.63" r="7" fill="#111e2b" stroke="#edc47e"/><text x="797.41" y="763.63">5</text></g><g><title>Port drive</title><circle cx="224.09" cy="627.17" r="7" fill="#111e2b" stroke="#edc47e"/><text x="234.09" y="617.17">6</text></g><g><title>Starboard drive</title><circle cx="224.09" cy="920.09" r="7" fill="#111e2b" stroke="#edc47e"/><text x="234.09" y="910.09">7</text></g><g><title>Fore-port emitter</title><circle cx="1249.33" cy="458.18" r="7" fill="#111e2b" stroke="#edc47e"/><text x="1259.33" y="448.18">8</text></g><g><title>Fore-starboard emitter</title><circle cx="1249.33" cy="1077.82" r="7" fill="#111e2b" stroke="#edc47e"/><text x="1259.33" y="1067.82">9</text></g><g><title>Aft-starboard emitter</title><circle cx="438.15" cy="863.76" r="7" fill="#111e2b" stroke="#edc47e"/><text x="448.15" y="853.76">10</text></g><g><title>Aft-port emitter</title><circle cx="460.69" cy="593.37" r="7" fill="#111e2b" stroke="#edc47e"/><text x="470.69" y="583.37">11</text></g><g><title>Attitude jet 1</title><circle cx="257.89" cy="593.37" r="7" fill="#111e2b" stroke="#edc47e"/><text x="267.89" y="583.37">12</text></g><g><title>Attitude jet 2</title><circle cx="257.89" cy="953.89" r="7" fill="#111e2b" stroke="#edc47e"/><text x="267.89" y="943.89">13</text></g><g><title>Attitude jet 3</title><circle cx="1080.33" cy="604.64" r="7" fill="#111e2b" stroke="#edc47e"/><text x="1090.33" y="594.64">14</text></g><g><title>Attitude jet 4</title><circle cx="1080.33" cy="942.63" r="7" fill="#111e2b" stroke="#edc47e"/><text x="1090.33" y="932.63">15</text></g><g><title>Attitude jet 5</title><circle cx="1001.47" cy="582.11" r="7" fill="#111e2b" stroke="#edc47e"/><text x="1011.47" y="572.11">16</text></g><g><title>Attitude jet 6</title><circle cx="1001.47" cy="965.16" r="7" fill="#111e2b" stroke="#edc47e"/><text x="1011.47" y="955.16">17</text></g><g><title>Attitude jet 7</title><circle cx="640.95" cy="638.44" r="7" fill="#111e2b" stroke="#edc47e"/><text x="650.95" y="628.44">18</text></g><g><title>Attitude jet 8</title><circle cx="640.95" cy="908.83" r="7" fill="#111e2b" stroke="#edc47e"/><text x="650.95" y="898.83">19</text></g><g><title>Attitude jet 9</title><circle cx="900.07" cy="638.44" r="7" fill="#111e2b" stroke="#edc47e"/><text x="910.07" y="628.44">20</text></g><g><title>Attitude jet 10</title><circle cx="900.07" cy="908.83" r="7" fill="#111e2b" stroke="#edc47e"/><text x="910.07" y="898.83">21</text></g><g><title>Attitude jet 11</title><circle cx="1238.06" cy="537.04" r="7" fill="#111e2b" stroke="#edc47e"/><text x="1248.06" y="527.04">22</text></g><g><title>Attitude jet 12</title><circle cx="1181.73" cy="537.04" r="7" fill="#111e2b" stroke="#edc47e"/><text x="1191.73" y="527.04">23</text></g><g><title>Attitude jet 13</title><circle cx="1181.73" cy="537.04" r="7" fill="#111e2b" stroke="#edc47e"/><text x="1191.73" y="527.04">24</text></g><g><title>Attitude jet 14</title><circle cx="1238.06" cy="1010.22" r="7" fill="#111e2b" stroke="#edc47e"/><text x="1248.06" y="1000.22">25</text></g><g><title>Attitude jet 15</title><circle cx="1181.73" cy="1010.22" r="7" fill="#111e2b" stroke="#edc47e"/><text x="1191.73" y="1000.22">26</text></g><g><title>Attitude jet 16</title><circle cx="1181.73" cy="1010.22" r="7" fill="#111e2b" stroke="#edc47e"/><text x="1191.73" y="1000.22">27</text></g><g><title>Picket rapid battery</title><circle cx="697.28" cy="773.63" r="7" fill="#111e2b" stroke="#edc47e"/><text x="707.28" y="763.63">28</text></g><g><title>MAUL reactor cooling loop</title><circle cx="494.49" cy="886.30" r="7" fill="#111e2b" stroke="#edc47e"/><text x="504.49" y="876.30">29</text></g><g><title>Jump drive / exposed coils</title><circle cx="505.75" cy="773.63" r="7" fill="#111e2b" stroke="#edc47e"/><text x="515.75" y="763.63">30</text></g><text x="40" y="1480">Machine numbers match ship.json. Positions are projected through the hull; this is a systems map, not a deck plan.</text></g></svg>