<svg xmlns="http://www.w3.org/2000/svg" width="2048" height="1536" viewBox="0 0 2048 1536"><rect width="2048" height="1536" fill="#0c131d"/><image href="bfe8110cc9796ed29c6c7dc6eef9a54cdedde376fc595a371f158156609771b4.png" width="2048" height="1536"/><g font-family="Arial" font-size="16" fill="#f7da9c"><g><title>Compact reactor</title><circle cx="645.72" cy="774.30" r="7" fill="#111e2b" stroke="#edc47e"/><text x="655.72" y="764.30">0</text></g><g><title>Flight control and sensors</title><circle cx="469.19" cy="774.30" r="7" fill="#111e2b" stroke="#edc47e"/><text x="479.19" y="764.30">1</text></g><g><title>Protected power spine</title><circle cx="418.75" cy="774.30" r="7" fill="#111e2b" stroke="#edc47e"/><text x="428.75" y="764.30">2</text></g><g><title>Port propellant</title><circle cx="443.97" cy="698.65" r="7" fill="#111e2b" stroke="#edc47e"/><text x="453.97" y="688.65">3</text></g><g><title>Starboard propellant</title><circle cx="443.97" cy="849.96" r="7" fill="#111e2b" stroke="#edc47e"/><text x="453.97" y="839.96">4</text></g><g><title>Autocannon magazine</title><circle cx="872.69" cy="774.30" r="7" fill="#111e2b" stroke="#edc47e"/><text x="882.69" y="764.30">5</text></g><g><title>Port drive</title><circle cx="242.23" cy="610.38" r="7" fill="#111e2b" stroke="#edc47e"/><text x="252.23" y="600.38">6</text></g><g><title>Starboard drive</title><circle cx="242.23" cy="938.23" r="7" fill="#111e2b" stroke="#edc47e"/><text x="252.23" y="928.23">7</text></g><g><title>Fore-port emitter</title><circle cx="1049.22" cy="610.38" r="7" fill="#111e2b" stroke="#edc47e"/><text x="1059.22" y="600.38">8</text></g><g><title>Fore-starboard emitter</title><circle cx="1049.22" cy="938.23" r="7" fill="#111e2b" stroke="#edc47e"/><text x="1059.22" y="928.23">9</text></g><g><title>Aft-starboard emitter</title><circle cx="431.36" cy="938.23" r="7" fill="#111e2b" stroke="#edc47e"/><text x="441.36" y="928.23">10</text></g><g><title>Aft-port emitter</title><circle cx="431.36" cy="610.38" r="7" fill="#111e2b" stroke="#edc47e"/><text x="441.36" y="600.38">11</text></g><g><title>Attitude jet 1</title><circle cx="280.05" cy="572.56" r="7" fill="#111e2b" stroke="#edc47e"/><text x="290.05" y="562.56">12</text></g><g><title>Attitude jet 2</title><circle cx="280.05" cy="976.05" r="7" fill="#111e2b" stroke="#edc47e"/><text x="290.05" y="966.05">13</text></g><g><title>Attitude jet 3</title><circle cx="1200.53" cy="459.07" r="7" fill="#111e2b" stroke="#edc47e"/><text x="1210.53" y="449.07">14</text></g><g><title>Attitude jet 4</title><circle cx="1200.53" cy="1089.54" r="7" fill="#111e2b" stroke="#edc47e"/><text x="1210.53" y="1079.54">15</text></g><g><title>Attitude jet 5</title><circle cx="1112.26" cy="459.07" r="7" fill="#111e2b" stroke="#edc47e"/><text x="1122.26" y="449.07">16</text></g><g><title>Attitude jet 6</title><circle cx="1112.26" cy="1089.54" r="7" fill="#111e2b" stroke="#edc47e"/><text x="1122.26" y="1079.54">17</text></g><g><title>Attitude jet 7</title><circle cx="708.77" cy="622.99" r="7" fill="#111e2b" stroke="#edc47e"/><text x="718.77" y="612.99">18</text></g><g><title>Attitude jet 8</title><circle cx="708.77" cy="925.62" r="7" fill="#111e2b" stroke="#edc47e"/><text x="718.77" y="915.62">19</text></g><g><title>Attitude jet 9</title><circle cx="998.78" cy="622.99" r="7" fill="#111e2b" stroke="#edc47e"/><text x="1008.78" y="612.99">20</text></g><g><title>Attitude jet 10</title><circle cx="998.78" cy="925.62" r="7" fill="#111e2b" stroke="#edc47e"/><text x="1008.78" y="915.62">21</text></g><g><title>Picket rapid battery</title><circle cx="771.81" cy="774.30" r="7" fill="#111e2b" stroke="#edc47e"/><text x="781.81" y="764.30">22</text></g><g><title>MAUL reactor cooling loop</title><circle cx="544.85" cy="900.40" r="7" fill="#111e2b" stroke="#edc47e"/><text x="554.85" y="890.40">23</text></g><g><title>Boarding torpedo bay 1</title><circle cx="1175.31" cy="597.77" r="7" fill="#111e2b" stroke="#edc47e"/><text x="1185.31" y="587.77">24</text></g><g><title>Boarding torpedo bay 2</title><circle cx="1175.31" cy="950.83" r="7" fill="#111e2b" stroke="#edc47e"/><text x="1185.31" y="940.83">25</text></g><text x="40" y="1480">Machine numbers match ship.json. Positions are projected through the hull; this is a systems map, not a deck plan.</text></g></svg>