<svg xmlns="http://www.w3.org/2000/svg" width="2048" height="1536" viewBox="0 0 2048 1536"><rect width="2048" height="1536" fill="#0c131d"/><image href="4587a5c9b74fc1f69e7f094855fc541b16289ad6a19bc3da3ae6ebcf50d09cd0.png" width="2048" height="1536"/><g font-family="Arial" font-size="16" fill="#f7da9c"><g><title>Compact reactor</title><circle cx="998.50" cy="776.50" r="7" fill="#111e2b" stroke="#edc47e"/><text x="1008.50" y="766.50">0</text></g><g><title>Flight control and sensors</title><circle cx="726.50" cy="776.50" r="7" fill="#111e2b" stroke="#edc47e"/><text x="736.50" y="766.50">1</text></g><g><title>Protected power spine</title><circle cx="420.50" cy="776.50" r="7" fill="#111e2b" stroke="#edc47e"/><text x="430.50" y="766.50">2</text></g><g><title>Port propellant</title><circle cx="641.50" cy="725.50" r="7" fill="#111e2b" stroke="#edc47e"/><text x="651.50" y="715.50">3</text></g><g><title>Starboard propellant</title><circle cx="641.50" cy="827.50" r="7" fill="#111e2b" stroke="#edc47e"/><text x="651.50" y="817.50">4</text></g><g><title>Optic and reactor cooling loop</title><circle cx="1202.50" cy="776.50" r="7" fill="#111e2b" stroke="#edc47e"/><text x="1212.50" y="766.50">5</text></g><g><title>Port drive</title><circle cx="250.50" cy="657.50" r="7" fill="#111e2b" stroke="#edc47e"/><text x="260.50" y="647.50">6</text></g><g><title>Starboard drive</title><circle cx="250.50" cy="895.50" r="7" fill="#111e2b" stroke="#edc47e"/><text x="260.50" y="885.50">7</text></g><g><title>Fore-port emitter</title><circle cx="1559.50" cy="657.50" r="7" fill="#111e2b" stroke="#edc47e"/><text x="1569.50" y="647.50">8</text></g><g><title>Fore-starboard emitter</title><circle cx="1559.50" cy="895.50" r="7" fill="#111e2b" stroke="#edc47e"/><text x="1569.50" y="885.50">9</text></g><g><title>Aft-starboard emitter</title><circle cx="539.50" cy="895.50" r="7" fill="#111e2b" stroke="#edc47e"/><text x="549.50" y="885.50">10</text></g><g><title>Aft-port emitter</title><circle cx="539.50" cy="657.50" r="7" fill="#111e2b" stroke="#edc47e"/><text x="549.50" y="647.50">11</text></g><g><title>Attitude jet 1</title><circle cx="369.50" cy="623.50" r="7" fill="#111e2b" stroke="#edc47e"/><text x="379.50" y="613.50">12</text></g><g><title>Attitude jet 2</title><circle cx="369.50" cy="929.50" r="7" fill="#111e2b" stroke="#edc47e"/><text x="379.50" y="919.50">13</text></g><g><title>Attitude jet 3</title><circle cx="1627.50" cy="708.50" r="7" fill="#111e2b" stroke="#edc47e"/><text x="1637.50" y="698.50">14</text></g><g><title>Attitude jet 4</title><circle cx="1627.50" cy="844.50" r="7" fill="#111e2b" stroke="#edc47e"/><text x="1637.50" y="834.50">15</text></g><g><title>Attitude jet 5</title><circle cx="1899.50" cy="742.50" r="7" fill="#111e2b" stroke="#edc47e"/><text x="1909.50" y="732.50">16</text></g><g><title>Attitude jet 6</title><circle cx="1899.50" cy="810.50" r="7" fill="#111e2b" stroke="#edc47e"/><text x="1909.50" y="800.50">17</text></g><g><title>Attitude jet 7</title><circle cx="981.50" cy="640.50" r="7" fill="#111e2b" stroke="#edc47e"/><text x="991.50" y="630.50">18</text></g><g><title>Attitude jet 8</title><circle cx="981.50" cy="912.50" r="7" fill="#111e2b" stroke="#edc47e"/><text x="991.50" y="902.50">19</text></g><g><title>Attitude jet 9</title><circle cx="1321.50" cy="657.50" r="7" fill="#111e2b" stroke="#edc47e"/><text x="1331.50" y="647.50">20</text></g><g><title>Attitude jet 10</title><circle cx="1321.50" cy="895.50" r="7" fill="#111e2b" stroke="#edc47e"/><text x="1331.50" y="885.50">21</text></g><g><title>LANCET / 500 m continuous laser</title><circle cx="1508.50" cy="759.50" r="7" fill="#111e2b" stroke="#edc47e"/><text x="1518.50" y="749.50">22</text></g><text x="40" y="1480">Machine numbers match ship.json. Positions are projected through the hull; this is a systems map, not a deck plan.</text></g></svg>