<svg xmlns="http://www.w3.org/2000/svg" width="2048" height="1536" viewBox="0 0 2048 1536"><rect width="2048" height="1536" fill="#0c131d"/><image href="6d8e9476f52d8c073fa3a1f59d7f7c21bf51fe62b4376409c23de01c3b1ca489.png" width="2048" height="1536"/><g font-family="Arial" font-size="16" fill="#f7da9c"><g><title>Watchman Ember cooling manifold</title><circle cx="104.45" cy="749.97" r="7" fill="#111e2b" stroke="#edc47e"/><text x="114.45" y="739.97">0</text></g><g><title>Watchman Ember</title><circle cx="176.58" cy="713.91" r="7" fill="#111e2b" stroke="#edc47e"/><text x="186.58" y="703.91">1</text></g><g><title>Watchman distribution</title><circle cx="439.82" cy="775.21" r="7" fill="#111e2b" stroke="#edc47e"/><text x="449.82" y="765.21">2</text></g><g><title>Watchman operations bridge</title><circle cx="483.09" cy="775.21" r="7" fill="#111e2b" stroke="#edc47e"/><text x="493.09" y="765.21">3</text></g><g><title>Watchman correlation computer</title><circle cx="1031.21" cy="775.21" r="7" fill="#111e2b" stroke="#edc47e"/><text x="1041.21" y="765.21">4</text></g><g><title>Watchman port propellant</title><circle cx="310.00" cy="544.42" r="7" fill="#111e2b" stroke="#edc47e"/><text x="320.00" y="534.42">5</text></g><g><title>Watchman port drive</title><circle cx="151.33" cy="544.42" r="7" fill="#111e2b" stroke="#edc47e"/><text x="161.33" y="534.42">6</text></g><g><title>Watchman starboard propellant</title><circle cx="310.00" cy="1006.00" r="7" fill="#111e2b" stroke="#edc47e"/><text x="320.00" y="996.00">7</text></g><g><title>Watchman starboard drive</title><circle cx="151.33" cy="1006.00" r="7" fill="#111e2b" stroke="#edc47e"/><text x="161.33" y="996.00">8</text></g><g><title>Watchman jet 1</title><circle cx="1824.55" cy="501.15" r="7" fill="#111e2b" stroke="#edc47e"/><text x="1834.55" y="491.15">9</text></g><g><title>Watchman jet 2</title><circle cx="1824.55" cy="1049.27" r="7" fill="#111e2b" stroke="#edc47e"/><text x="1834.55" y="1039.27">10</text></g><g><title>Watchman jet 3</title><circle cx="237.88" cy="501.15" r="7" fill="#111e2b" stroke="#edc47e"/><text x="247.88" y="491.15">11</text></g><g><title>Watchman jet 4</title><circle cx="237.88" cy="1049.27" r="7" fill="#111e2b" stroke="#edc47e"/><text x="247.88" y="1039.27">12</text></g><g><title>Watchman jet 5</title><circle cx="1954.36" cy="659.82" r="7" fill="#111e2b" stroke="#edc47e"/><text x="1964.36" y="649.82">13</text></g><g><title>Watchman jet 6</title><circle cx="1954.36" cy="890.61" r="7" fill="#111e2b" stroke="#edc47e"/><text x="1964.36" y="880.61">14</text></g><g><title>Watchman jet 7</title><circle cx="1536.06" cy="659.82" r="7" fill="#111e2b" stroke="#edc47e"/><text x="1546.06" y="649.82">15</text></g><g><title>Watchman jet 8</title><circle cx="1536.06" cy="890.61" r="7" fill="#111e2b" stroke="#edc47e"/><text x="1546.06" y="880.61">16</text></g><g><title>Watchman jet 9</title><circle cx="1536.06" cy="659.82" r="7" fill="#111e2b" stroke="#edc47e"/><text x="1546.06" y="649.82">17</text></g><g><title>Watchman jet 10</title><circle cx="1536.06" cy="890.61" r="7" fill="#111e2b" stroke="#edc47e"/><text x="1546.06" y="880.61">18</text></g><g><title>Watchman receiver 1</title><circle cx="829.27" cy="515.58" r="7" fill="#111e2b" stroke="#edc47e"/><text x="839.27" y="505.58">19</text></g><g><title>Watchman receiver 2</title><circle cx="829.27" cy="1020.42" r="7" fill="#111e2b" stroke="#edc47e"/><text x="839.27" y="1010.42">20</text></g><g><title>Watchman receiver 3</title><circle cx="1290.85" cy="515.58" r="7" fill="#111e2b" stroke="#edc47e"/><text x="1300.85" y="505.58">21</text></g><g><title>Watchman receiver 4</title><circle cx="1290.85" cy="1020.42" r="7" fill="#111e2b" stroke="#edc47e"/><text x="1300.85" y="1010.42">22</text></g><g><title>Watchman communications mast</title><circle cx="569.64" cy="775.21" r="7" fill="#111e2b" stroke="#edc47e"/><text x="579.64" y="765.21">23</text></g><g><title>Watchman defensive ammunition</title><circle cx="1507.21" cy="775.21" r="7" fill="#111e2b" stroke="#edc47e"/><text x="1517.21" y="765.21">24</text></g><g><title>Watchman point defense 1</title><circle cx="814.85" cy="775.21" r="7" fill="#111e2b" stroke="#edc47e"/><text x="824.85" y="765.21">25</text></g><g><title>Watchman point defense 2</title><circle cx="1723.58" cy="775.21" r="7" fill="#111e2b" stroke="#edc47e"/><text x="1733.58" y="765.21">26</text></g><g><title>Watchman shield quarter 1</title><circle cx="1536.06" cy="443.45" r="7" fill="#111e2b" stroke="#edc47e"/><text x="1546.06" y="433.45">27</text></g><g><title>Watchman shield quarter 2</title><circle cx="1536.06" cy="1092.55" r="7" fill="#111e2b" stroke="#edc47e"/><text x="1546.06" y="1082.55">28</text></g><g><title>Watchman shield quarter 3</title><circle cx="511.94" cy="905.03" r="7" fill="#111e2b" stroke="#edc47e"/><text x="521.94" y="895.03">29</text></g><g><title>Watchman shield quarter 4</title><circle cx="511.94" cy="630.97" r="7" fill="#111e2b" stroke="#edc47e"/><text x="521.94" y="620.97">30</text></g><g><title>Jump drive / exposed coils</title><circle cx="584.06" cy="775.21" r="7" fill="#111e2b" stroke="#edc47e"/><text x="594.06" y="765.21">31</text></g><text x="40" y="1480">Machine numbers match ship.json. Positions are projected through the hull; this is a systems map, not a deck plan.</text></g></svg>