<svg xmlns="http://www.w3.org/2000/svg" width="2048" height="1536" viewBox="0 0 2048 1536"><rect width="2048" height="1536" fill="#0c131d"/><image href="b859da660ba03c5692521608241ff4177ee25d074062b93bea930c70b78cd873.png" width="2048" height="1536"/><g font-family="Arial" font-size="16" fill="#f7da9c"><g><title>Shared protected reactor</title><circle cx="1007.62" cy="778.24" r="7" fill="#111e2b" stroke="#edc47e"/><text x="1017.62" y="768.24">0</text></g><g><title>Low forward command</title><circle cx="1056.76" cy="753.67" r="7" fill="#111e2b" stroke="#edc47e"/><text x="1066.76" y="743.67">1</text></g><g><title>Port protected feed</title><circle cx="888.88" cy="647.21" r="7" fill="#111e2b" stroke="#edc47e"/><text x="898.88" y="637.21">2</text></g><g><title>Port propellant reserve</title><circle cx="696.43" cy="647.21" r="7" fill="#111e2b" stroke="#edc47e"/><text x="706.43" y="637.21">3</text></g><g><title>Starboard protected feed</title><circle cx="888.88" cy="892.89" r="7" fill="#111e2b" stroke="#edc47e"/><text x="898.88" y="882.89">4</text></g><g><title>Starboard propellant reserve</title><circle cx="696.43" cy="892.89" r="7" fill="#111e2b" stroke="#edc47e"/><text x="706.43" y="882.89">5</text></g><g><title>Battery 1 finite magazine</title><circle cx="1638.19" cy="688.15" r="7" fill="#111e2b" stroke="#edc47e"/><text x="1648.19" y="678.15">6</text></g><g><title>Battery 2 finite magazine</title><circle cx="1228.73" cy="851.94" r="7" fill="#111e2b" stroke="#edc47e"/><text x="1238.73" y="841.94">7</text></g><g><title>Battery 3 finite magazine</title><circle cx="508.08" cy="647.21" r="7" fill="#111e2b" stroke="#edc47e"/><text x="518.08" y="637.21">8</text></g><g><title>Battery 4 finite magazine</title><circle cx="508.08" cy="892.89" r="7" fill="#111e2b" stroke="#edc47e"/><text x="518.08" y="882.89">9</text></g><g><title>Port main drive</title><circle cx="205.08" cy="647.21" r="7" fill="#111e2b" stroke="#edc47e"/><text x="215.08" y="637.21">10</text></g><g><title>Starboard main drive</title><circle cx="205.08" cy="892.89" r="7" fill="#111e2b" stroke="#edc47e"/><text x="215.08" y="882.89">11</text></g><g><title>Fore-port projector</title><circle cx="1433.46" cy="692.25" r="7" fill="#111e2b" stroke="#edc47e"/><text x="1443.46" y="682.25">12</text></g><g><title>Fore-starboard projector</title><circle cx="1433.46" cy="847.85" r="7" fill="#111e2b" stroke="#edc47e"/><text x="1443.46" y="837.85">13</text></g><g><title>Aft-starboard projector</title><circle cx="778.32" cy="892.89" r="7" fill="#111e2b" stroke="#edc47e"/><text x="788.32" y="882.89">14</text></g><g><title>Aft-port projector</title><circle cx="778.32" cy="647.21" r="7" fill="#111e2b" stroke="#edc47e"/><text x="788.32" y="637.21">15</text></g><g><title>Attitude jet 1</title><circle cx="200.98" cy="606.26" r="7" fill="#111e2b" stroke="#edc47e"/><text x="210.98" y="596.26">16</text></g><g><title>Attitude jet 2</title><circle cx="200.98" cy="933.83" r="7" fill="#111e2b" stroke="#edc47e"/><text x="210.98" y="923.83">17</text></g><g><title>Attitude jet 3</title><circle cx="1785.60" cy="655.40" r="7" fill="#111e2b" stroke="#edc47e"/><text x="1795.60" y="645.40">18</text></g><g><title>Attitude jet 4</title><circle cx="1785.60" cy="884.70" r="7" fill="#111e2b" stroke="#edc47e"/><text x="1795.60" y="874.70">19</text></g><g><title>Attitude jet 5</title><circle cx="1965.76" cy="720.91" r="7" fill="#111e2b" stroke="#edc47e"/><text x="1975.76" y="710.91">20</text></g><g><title>Attitude jet 6</title><circle cx="1965.76" cy="819.18" r="7" fill="#111e2b" stroke="#edc47e"/><text x="1975.76" y="809.18">21</text></g><g><title>Attitude jet 7</title><circle cx="360.67" cy="647.21" r="7" fill="#111e2b" stroke="#edc47e"/><text x="370.67" y="637.21">22</text></g><g><title>Attitude jet 8</title><circle cx="360.67" cy="892.89" r="7" fill="#111e2b" stroke="#edc47e"/><text x="370.67" y="882.89">23</text></g><g><title>Attitude jet 9</title><circle cx="1482.60" cy="659.49" r="7" fill="#111e2b" stroke="#edc47e"/><text x="1492.60" y="649.49">24</text></g><g><title>Attitude jet 10</title><circle cx="1482.60" cy="880.60" r="7" fill="#111e2b" stroke="#edc47e"/><text x="1492.60" y="870.60">25</text></g><g><title>Port forward heavy battery</title><circle cx="1638.19" cy="688.15" r="7" fill="#111e2b" stroke="#edc47e"/><text x="1648.19" y="678.15">26</text></g><g><title>Starboard staggered heavy battery</title><circle cx="1228.73" cy="851.94" r="7" fill="#111e2b" stroke="#edc47e"/><text x="1238.73" y="841.94">27</text></g><g><title>Port stern defensive battery</title><circle cx="508.08" cy="647.21" r="7" fill="#111e2b" stroke="#edc47e"/><text x="518.08" y="637.21">28</text></g><g><title>Starboard stern defensive battery</title><circle cx="508.08" cy="892.89" r="7" fill="#111e2b" stroke="#edc47e"/><text x="518.08" y="882.89">29</text></g><text x="40" y="1480">Machine numbers match ship.json. Positions are projected through the hull; this is a systems map, not a deck plan.</text></g></svg>